<?xml version="1.0" encoding="utf-8"?>
<svg width="2825" height="436" viewBox="0 0 2825 436" fill="none" xmlns="http://www.w3.org/2000/svg">
  <path d="M203.737 242.363C242.679 257.153 240.489 298.402 235.372 315.944C230.506 338.333 216.918 357.619 227.153 376.422C229.712 381.113 230.933 382.683 238.609 388.207C241.478 390.165 243.668 391.657 245.548 393.247C259.117 404.722 255.473 421.547 243.164 430.445C222.811 441.842 205.055 430.483 197.942 423.059C191.118 416.837 179.197 400.632 183.094 376.015C184.392 367.815 187.765 358.375 195.015 344.923C205.714 327.497 213.216 310.827 216.162 303.539C234.519 260.39 203.737 242.402 203.737 242.402V242.363Z" style="fill: rgb(0, 0, 0);"/>
  <path d="M190.711 224.956C207.789 262.949 177.085 290.551 161.054 299.351C141.787 311.738 118.545 315.77 112.478 336.297C110.966 341.434 110.734 343.392 112.246 352.735C112.905 356.146 113.389 358.763 113.583 361.205C115.056 378.903 100.596 388.226 85.5929 385.803C63.1464 379.484 58.6106 358.879 58.8432 348.606C58.3973 339.379 61.4406 319.491 81.6192 304.837C88.3454 299.952 97.3976 295.669 112.032 291.288C131.92 286.539 149.017 280.045 156.247 276.963C199.725 259.421 190.692 224.937 190.692 224.937L190.711 224.956Z" style="fill: rgb(0, 0, 0);"/>
  <path d="M193.813 203.421C179.023 242.363 137.774 240.172 120.232 235.055C97.8434 230.19 78.5565 216.602 59.7542 226.836C55.0633 229.395 53.4933 230.616 47.9689 238.292C46.0111 241.161 44.5185 243.351 42.9291 245.231C31.4538 258.8 14.6287 255.156 5.73151 242.847C-5.66618 222.494 5.69274 204.739 13.1167 197.625C19.339 190.802 35.5438 178.881 60.1613 182.777C68.3606 184.076 77.8006 187.448 91.2529 194.698C108.679 205.398 125.349 212.899 132.637 215.846C175.786 234.202 193.774 203.421 193.774 203.421H193.813Z" style="fill: rgb(0, 0, 0);"/>
  <path d="M211.239 190.395C173.246 207.472 145.644 176.768 136.843 160.738C124.457 141.47 120.425 118.229 99.8979 112.162C94.7611 110.65 92.8034 110.418 83.4604 111.929C80.0488 112.589 77.432 113.073 74.9896 113.267C57.2922 114.74 47.9686 100.28 50.3916 85.2767C56.7107 62.8302 77.3157 58.2944 87.5891 58.527C96.8158 58.0812 116.704 61.1244 131.358 81.303C136.243 88.0292 140.526 97.0814 144.907 111.716C149.656 131.604 156.15 148.701 159.232 155.931C176.774 199.409 211.258 190.376 211.258 190.376L211.239 190.395Z" style="fill: rgb(0, 0, 0);"/>
  <path d="M232.774 193.496C193.832 178.706 196.023 137.458 201.14 119.915C206.005 97.5269 219.593 78.24 209.359 59.4377C206.8 54.7468 205.579 53.1767 197.903 47.6523C195.034 45.6946 192.844 44.202 190.963 42.6125C177.395 31.1373 181.039 14.3122 193.348 5.41498C213.701 -5.98271 231.456 5.37622 238.57 12.8002C245.393 19.0224 257.314 35.2273 253.418 59.8448C252.119 68.0441 248.747 77.484 241.497 90.9364C230.797 108.362 223.296 125.033 220.349 132.321C201.993 175.469 232.774 193.457 232.774 193.457V193.496Z" style="fill: rgb(0, 0, 0);"/>
  <path d="M245.8 210.923C228.723 172.931 259.427 145.328 275.457 136.528C294.725 124.142 317.966 120.11 324.033 99.5827C325.545 94.446 325.777 92.4882 324.265 83.1452C323.606 79.7336 323.122 77.1168 322.928 74.6744C321.455 56.977 335.915 47.6534 350.918 50.0764C373.365 56.3955 377.901 77.0005 377.668 87.2739C378.114 96.5006 375.07 116.388 354.892 131.043C348.166 135.927 339.113 140.211 324.479 144.592C304.591 149.341 287.494 155.835 280.264 158.917C236.786 176.459 245.819 210.943 245.819 210.943L245.8 210.923Z" style="fill: rgb(0, 0, 0);"/>
  <path d="M242.679 232.458C257.469 193.516 298.718 195.706 316.26 200.824C338.649 205.689 357.936 219.277 376.738 209.043C381.429 206.484 382.999 205.263 388.523 197.587C390.481 194.718 391.974 192.528 393.563 190.647C405.038 177.079 421.863 180.723 430.761 193.032C442.158 213.385 430.799 231.14 423.375 238.254C417.153 245.077 400.948 256.998 376.331 253.102C368.131 251.803 358.692 248.43 345.239 241.181C327.813 230.481 311.143 222.98 303.855 220.033C260.706 201.677 242.718 232.458 242.718 232.458H242.679Z" style="fill: rgb(0, 0, 0);"/>
  <path d="M225.273 245.485C263.265 228.407 290.867 259.111 299.668 275.142C312.054 294.409 316.086 317.651 336.613 323.718C341.75 325.23 343.708 325.462 353.051 323.95C356.462 323.291 359.079 322.807 361.521 322.613C379.219 321.14 388.543 335.6 386.12 350.603C379.8 373.049 359.195 377.585 348.922 377.353C339.695 377.799 319.808 374.755 305.153 354.577C300.269 347.851 295.985 338.798 291.604 324.163C286.855 304.276 280.361 287.179 277.279 279.949C259.737 236.471 225.253 245.504 225.253 245.504L225.273 245.485Z" style="fill: rgb(0, 0, 0);"/>
  <path d="M2714.11 335.567V262.049C2714.11 237.905 2716.1 189.556 2759.5 189.556C2782.2 189.556 2796.32 202.956 2796.32 234.524V335.507H2824.27V227.825C2824.27 190.945 2807.85 164.748 2767.35 164.748C2732.52 164.748 2716.34 189.919 2713.45 198.61V169.396H2686.47V335.507H2714.11V335.567ZM2572.69 315.407C2545.04 315.407 2524.64 295.247 2524.64 252.995C2524.64 210.743 2545.04 189.556 2572.69 189.556C2600.33 189.556 2620.37 210.682 2620.37 252.995C2620.37 295.307 2599.97 315.407 2572.69 315.407ZM2572.69 340.215C2615.12 340.215 2649.28 304.663 2649.28 252.632C2649.28 200.602 2616.09 164.688 2572.69 164.688C2529.29 164.688 2495.43 200.904 2495.43 252.632C2495.43 304.361 2529.95 340.215 2572.69 340.215ZM2458.91 169.396H2430.96V335.507H2458.91V169.457V169.396ZM2459.57 100.586H2430V137.224H2459.57V100.646V100.586ZM2401.69 335.507V311H2369.46C2356.66 311 2350.68 304.964 2350.68 291.866V193.238H2395.71V169.396H2350.68V118.09H2323.04V169.457H2284.89V193.299H2323.04V294.281C2323.04 321.805 2336.86 335.567 2364.81 335.567H2401.63L2401.69 335.507ZM2186.26 316.735C2166.22 316.735 2155.66 306.655 2155.66 290.901C2155.66 263.075 2190.19 251.968 2230.63 247.924V265.731C2230.63 301.645 2207.93 316.735 2186.26 316.735ZM2179.02 340.215C2205.64 340.215 2222.12 327.78 2233.28 308.646C2234.91 325.064 2240.53 335.507 2263.22 335.507H2285.25V311H2269.14C2261.23 311 2258.27 308.646 2258.27 299.894V222.392C2258.27 187.806 2238.54 164.688 2194.47 164.688C2150.41 164.688 2129.04 188.53 2123.79 210.32L2150.77 219.374C2155.36 205.31 2165.56 188.832 2194.53 188.832C2219.82 188.832 2230.69 201.568 2230.69 221.366V227.04C2176.79 231.386 2127.11 247.502 2127.11 293.134C2127.11 322.348 2147.51 340.094 2179.08 340.094M2015.32 315.588C1989.67 315.588 1969.63 299.17 1969.63 252.512C1969.63 205.854 1989.67 189.074 2015.32 189.074C2042.31 189.074 2062.04 209.898 2062.04 252.512C2062.04 295.126 2042.31 315.588 2015.32 315.588ZM2007.78 340.094C2036.39 340.094 2053.17 323.314 2061.08 308.526V335.386H2088.36V100.646H2060.71V196.256C2052.81 181.83 2036.69 164.688 2007.78 164.688C1970.3 164.688 1940.66 196.92 1940.66 252.632C1940.66 308.345 1970.24 340.215 2007.78 340.215M1795.67 335.507V261.988C1795.67 237.844 1797.67 189.496 1841.07 189.496C1863.76 189.496 1877.88 202.896 1877.88 234.464V335.446H1905.83V227.825C1905.83 190.945 1889.41 164.748 1848.91 164.748C1814.02 164.748 1797.91 189.919 1794.95 198.61V169.396H1767.97V335.507H1795.61H1795.67ZM1636.51 340.215C1671.03 340.215 1686.18 315.407 1691.07 305.628V335.507H1718.35V169.457H1690.41V243.639C1690.41 272.491 1685.46 315.105 1646.04 315.105C1624.31 315.105 1610.19 302.369 1610.19 270.801V169.457H1582.24V277.501C1582.24 314.743 1599.02 340.275 1636.51 340.275M1471.12 315.467C1443.47 315.467 1423.13 295.307 1423.13 253.055C1423.13 210.803 1443.54 189.617 1471.12 189.617C1498.7 189.617 1518.8 210.743 1518.8 253.055C1518.8 295.367 1498.4 315.467 1471.12 315.467ZM1471.12 340.275C1513.55 340.275 1547.72 304.723 1547.72 252.693C1547.72 200.663 1514.52 164.748 1471.12 164.748C1427.72 164.748 1393.86 200.964 1393.86 252.693C1393.86 304.421 1428.38 340.275 1471.12 340.275ZM1338.93 193.299H1382.33V169.457H1338.93V144.286C1338.93 131.188 1344.55 125.152 1357.64 125.152H1387.88V100.646H1353C1325.05 100.646 1311.23 114.71 1311.23 144.588V169.396H1274.41V193.238H1311.23V335.507H1338.87V193.238L1338.93 193.299ZM1083.07 335.567L1109.02 250.641C1117.89 222.453 1120.85 211.407 1124.47 200.663C1127.43 210.381 1131.05 223.177 1139.62 251.003L1164.97 335.567H1198.53L1253.46 169.457H1224.19L1199.5 248.287C1189.3 282.148 1185.01 295.971 1181.75 305.327C1179.1 295.609 1174.87 281.484 1167.63 256.978L1141.31 169.396H1108.78L1084.45 250.58C1074.62 283.114 1070.99 294.884 1068.04 305.628L1050.95 249.252L1026.63 169.396H997.717L1051.32 335.507H1083.25L1083.07 335.567ZM862.632 236.215C864.925 206.336 883.999 187.565 906.996 187.565C929.993 187.565 949.429 203.982 949.731 236.215H862.571H862.632ZM908.324 340.215C942.548 340.215 967.839 322.408 979.006 292.591L953.353 283.175C948.403 295.91 935.909 316.071 909.29 316.071C885.931 316.071 863.235 302.007 861.908 259.031H977.98C983.593 205.371 954.62 164.748 906.936 164.748C865.831 164.748 833.961 198.309 833.961 252.331C833.961 309.371 863.537 340.275 908.264 340.275M626.444 335.567V136.862L763.642 335.567H793.58V100.646H764.004V284.865L636.705 100.646H596.928V335.567H626.504H626.444Z" style="fill: rgb(0, 0, 0);"/>
</svg>